# xmcd
#
# Track frame offsets: 
#        150
#        9702
#        20923
#        33364
#        42464
#        55379
#        67666
#        77643
#        87750
#        96708
#        106958
#        115640
#        127244
#        139164
#        149628
#        160935
#
# Disc length: 2292 seconds
#
# Revision: 0
# Processed by: cddbd v1.5.2PL0 Copyright (c) Steve Scherf et al.
# Submitted via: ExactAudioCopyFreeDBPlugin 1.0
#
DISCID=e408f210
DTITLE=Barbara Lynn - The Jamie Singles Collection, 1962-1965
DYEAR=2008
DGENRE=Rhythm and Blues
TTITLE0=Oh! Baby (We Got a Good Thing Goin')
TTITLE1=Unfair
TTITLE2=Don't Spread it Around
TTITLE3=Let Her Knock Herself Out
TTITLE4=It's Better to Have It
TTITLE5=People Gonna Talk
TTITLE6=(Don't Pretend) Just Lay it on the Line
TTITLE7=Careless Hands (with Lee Maye)
TTITLE8=I've Taken All I'm Gonna Take
TTITLE9=Keep on Pushing Your Luck
TTITLE10=Can't Buy My Love
TTITLE11=That's What a Friend Will Do
TTITLE12=All I Need is Your Love
TTITLE13=You're Gonna Be Sorry
TTITLE14=Silly of Me
TTITLE15=That's Something I Can't Take
EXTD=
EXTT0=
EXTT1=
EXTT2=
EXTT3=
EXTT4=
EXTT5=
EXTT6=
EXTT7=
EXTT8=
EXTT9=
EXTT10=
EXTT11=
EXTT12=
EXTT13=
EXTT14=
EXTT15=
PLAYORDER=
